<svg xmlns="http://www.w3.org/2000/svg" id="confirmation" width="51.163" height="51.163" viewBox="0 0 51.163 51.163">
    <defs>
        <style>
            .cls-1{fill:#1ab394}
        </style>
    </defs>
    <g id="Group_1598" data-name="Group 1598" transform="translate(17.055 18.121)">
        <g id="Group_1597" data-name="Group 1597">
            <path id="Path_305" d="M147.629 136.626a2.131 2.131 0 0 0-3.014 0l-9.152 9.151-3.822-3.821a2.131 2.131 0 0 0-3.014 3.014l5.329 5.329a2.131 2.131 0 0 0 3.014 0l10.659-10.659a2.131 2.131 0 0 0 0-3.014z" class="cls-1" data-name="Path 305" transform="translate(-128.002 -136.002)"/>
        </g>
    </g>
    <g id="Group_1600" data-name="Group 1600">
        <g id="Group_1599" data-name="Group 1599">
            <path id="Path_306" d="M49.031 23.45a2.133 2.133 0 0 0-2.131 2.132 21.316 21.316 0 1 1-6.19-15.021 2.131 2.131 0 1 0 3.025-3 25.582 25.582 0 1 0 7.428 18.024 2.133 2.133 0 0 0-2.132-2.135z" class="cls-1" data-name="Path 306"/>
        </g>
    </g>
</svg>
