<svg xmlns="http://www.w3.org/2000/svg" width="214.316" height="214.316" viewBox="0 0 214.316 214.316">
    <defs>
        <style>
            .cls-1{fill:none;stroke-linecap:round;stroke-dasharray:600}.cls-2,.cls-3{stroke:none}.cls-3{fill:#1ab394}
        </style>
    </defs>
    <g id="Path" class="cls-1">
        <path d="M107.158 0A107.158 107.158 0 1 1 0 107.158 107.158 107.158 0 0 1 107.158 0z" class="cls-2"/>
        <path d="M107.158 0c59.182 0 107.158 47.976 107.158 107.158S166.34 214.316 107.158 214.316 0 166.34 0 107.158v-.046-.017-.03-.019-.027-.02-.027-.02-.027-.019-.027-.02-.032a3.766 3.766 0 0 1 0-.06v-.013-.033-.018l.001-.028v-.02-.027-.02-.026-.02-.028-.019l.001-.03v-.016-.039-.007-.046-.017l.001-.03v-.018-.028-.02-.027l.001-.019v-.028-.02-.027-.018l.001-.03v-.017-.046-.005l.001-.04v-.019a18.139 18.139 0 0 1 .002-.093v-.03-.016-.03-.017l.001-.033v-.014-.037-.01a46.165 46.165 0 0 1 .002-.092v-.02-.026l.001-.02v-.027-.02l.001-.027v-.018l.001-.03v-.017-.034l.001-.011.002-.095v-.01-.035-.018l.001-.03v-.016l.001-.03v-.016l.001-.032v-.015-.03L.022 105a25.286 25.286 0 0 1 .001-.046l.001-.047v-.002l.001-.044v-.015l.001-.03v-.02l.001-.027v-.018a17.805 17.805 0 0 1 .002-.047v-.03-.016l.001-.03v-.017l.002-.045v-.048l.001-.01.001-.036v-.015l.001-.03v-.018l.001-.031v-.015l.002-.03v-.018a21.306 21.306 0 0 1 .001-.046l.001-.033v-.014a39.551 39.551 0 0 1 .002-.052v-.04l.001-.017.001-.03v-.018l.002-.027v-.02-.026l.001-.02.001-.027v-.02l.002-.03v-.015l.001-.033v-.014l.002-.046v-.007l.001-.04v-.012l.002-.034v-.015l.001-.03.001-.02v-.027l.001-.018.001-.029.001-.017.001-.034v-.012l.002-.04v-.007l.002-.046v-.011l.001-.035v-.016l.002-.03v-.018l.002-.028v-.02l.001-.027v-.018a18.66 18.66 0 0 1 .004-.092l.002-.047v-.002l.002-.045v-.01l.002-.035v-.016l.001-.03.001-.018.001-.028v-.02l.002-.028a6.763 6.763 0 0 1 .002-.063l.002-.035v-.012l.002-.045a3.697 3.697 0 0 1 .002-.046v-.018l.002-.028v-.02l.002-.026v-.02l.002-.026v-.02l.002-.026v-.02l.002-.029a6.676 6.676 0 0 1 .006-.124v-.03l.002-.02.001-.025v-.02l.002-.027.001-.02.001-.025.001-.021.001-.026.001-.02.002-.031v-.014l.003-.046v-.01l.002-.036v-.018l.002-.028.001-.018.001-.028.001-.02.002-.026v-.02l.002-.026v-.02l.003-.031v-.013l.002-.04v-.007l.003-.046v-.014l.002-.031.001-.019.002-.027v-.02l.002-.026.001-.02.002-.027v-.019a16.03 16.03 0 0 1 .005-.075v-.017l.003-.044v-.007l.002-.04.001-.016.002-.03.001-.019.002-.026v-.02l.002-.026.001-.021.002-.024v-.021l.002-.026.002-.021.001-.025.001-.02.003-.044v-.017l.002-.03.002-.018.001-.026a10.136 10.136 0 0 1 .003-.047l.001-.02.002-.026v-.019l.002-.028.002-.019.001-.026.001-.02.002-.03a8.207 8.207 0 0 1 .004-.06v-.014l.003-.032v-.018l.003-.027v-.02l.002-.027.002-.018.001-.028.002-.02.001-.026.002-.02.001-.026.002-.02.002-.044.001-.011.002-.034.002-.018.001-.028.002-.02.001-.025.002-.02.001-.027.002-.02c0-.01 0-.016.002-.026v-.02a15.371 15.371 0 0 1 .004-.045l.002-.029.001-.017.003-.044.001-.013.002-.034.001-.016.002-.029.002-.018c0-.01 0-.018.002-.028v-.019l.003-.026.001-.02.002-.025.001-.022.002-.024.002-.02.002-.027.002-.036.002-.027.001-.019.002-.027.002-.02.002-.026.001-.02.002-.025.002-.02.002-.028v-.018l.003-.028.001-.018.003-.032v-.013l.004-.045a1.94 1.94 0 0 1 .004-.047v-.012l.003-.034.001-.015.003-.03v-.017l.003-.03.001-.016.003-.032v-.013l.004-.035v-.011l.004-.041v-.006l.004-.045V98.6a5.866 5.866 0 0 0 .004-.047l.003-.03.001-.017.003-.029.001-.017a16.835 16.835 0 0 0 .004-.047l.002-.028.001-.017.003-.03.001-.016.004-.045v-.002l.004-.044v-.014c.002-.01.003-.021.003-.031l.002-.017.002-.029.002-.018.002-.028c0-.007 0-.01.002-.018l.002-.027.001-.02L.386 98l.001-.016.003-.035.001-.01.004-.047v-.005l.004-.039.001-.018.003-.028.001-.017.003-.03.001-.016.003-.03.001-.016a19.089 19.089 0 0 1 .004-.046l.003-.036.001-.008.009-.094v-.006l.004-.038v-.016l.004-.03.001-.015.003-.032.001-.015.003-.032.001-.014.003-.032.002-.014.003-.042v-.003l.01-.093v-.01l.003-.035a5.617 5.617 0 0 0 .005-.046l.001-.016.003-.03.002-.016c0-.012.001-.02.003-.032v-.013l.004-.035.001-.01.009-.093.001-.01.003-.035.002-.014.003-.032a5.703 5.703 0 0 1 .004-.046l.002-.016.003-.03.001-.016.003-.031.002-.014c0-.012.002-.023.003-.035l.001-.01.01-.092v-.012l.004-.035.001-.013a23.597 23.597 0 0 0 .005-.047l.003-.032c0-.007 0-.006.002-.013 0-.012.002-.021.003-.033a3.537 3.537 0 0 1 .006-.059l.004-.043v-.002l.01-.093.001-.01.004-.035.001-.015.003-.03.002-.017.003-.03.002-.015.003-.032.002-.014.003-.034.001-.011.005-.04v-.006l.005-.047v-.005l.005-.04.002-.014.003-.031.002-.015.003-.03.001-.017.004-.03.001-.015.004-.03.001-.016.004-.036.001-.009.01-.091.002-.013.003-.033.002-.016.003-.029.002-.017.003-.028.002-.018.003-.029.002-.016.004-.031.001-.014.005-.04v-.005l.006-.045v-.013l.005-.033.001-.015.004-.03.002-.017.003-.03.002-.016.003-.027.002-.02.003-.026.003-.019.003-.03.002-.014.004-.04.001-.005.005-.045.002-.016.004-.03.001-.015.004-.03.002-.017.003-.028.002-.018.003-.027.003-.019c0-.01.002-.019.003-.029a5.117 5.117 0 0 1 .006-.048l.001-.013.011-.09.002-.013c0-.01.003-.023.004-.033a4.094 4.094 0 0 1 .005-.044l.002-.018.004-.027.002-.019.003-.026.002-.019.004-.029.002-.015.004-.037.001-.008.006-.046.001-.008.005-.037.001-.014.004-.032.002-.014.004-.03.002-.017.004-.03a4.773 4.773 0 0 1 .007-.06l.005-.038v-.007l.013-.093v-.002l.005-.042.002-.013.004-.033.002-.013.004-.031c0-.007 0-.009.002-.016l.004-.03.002-.016.003-.03.003-.015.005-.04v-.004l.012-.092.002-.01.004-.035.002-.015.004-.03.002-.015.004-.03.002-.016.004-.031.002-.014.004-.033.002-.013.012-.09.001-.008.005-.038.002-.013.004-.03a5.92 5.92 0 0 1 .007-.048l.001-.013.005-.033.002-.013.004-.034.002-.011.005-.038v-.007l.014-.093v-.005l.006-.04.001-.01.005-.035.002-.013.004-.032.002-.013.005-.034.001-.011.006-.04v-.005l.007-.043v-.004l.007-.046v-.003l.006-.042.002-.01.004-.035.002-.014.005-.03.002-.017.004-.029.002-.016.005-.03a5.6 5.6 0 0 0 .002-.015l.005-.033.001-.012.006-.041v-.004a45.513 45.513 0 0 1 .009-.056l.005-.034.002-.014.004-.031.002-.015.005-.03.002-.016.005-.03.002-.014.005-.035.001-.01.006-.042v-.003l.015-.093v-.005l.006-.039a3.507 3.507 0 0 1 .007-.045l.002-.014.005-.032.001-.012.006-.035.001-.01.006-.037.001-.01.014-.09v-.004l.007-.041.001-.011.006-.035a3.304 3.304 0 0 1 .008-.057l.006-.034.001-.013.006-.034.001-.01.006-.04.001-.005.014-.092.002-.01.005-.035a3.85 3.85 0 0 0 .01-.058l.004-.032.003-.014.004-.03.003-.016.005-.032.002-.012.006-.043v-.001l.008-.047v-.004l.007-.04.002-.012.005-.034.002-.012.005-.033.003-.013.004-.032.003-.014.005-.031.002-.015.006-.034a2.212 2.212 0 0 0 .016-.101v-.004a39.268 39.268 0 0 1 .015-.086l.001-.011.006-.034.002-.012.005-.033.002-.013.006-.033.002-.012.007-.043v-.001l.015-.092.001-.007.006-.038.002-.011.006-.034.002-.012.006-.033.002-.013.005-.034a2.612 2.612 0 0 0 .008-.047l.002-.009.023-.137v-.005l.007-.038.002-.013.006-.033.002-.012.006-.033c0-.004 0-.009.002-.012l.005-.035.002-.01.007-.039v-.006l.017-.092v-.002l.007-.042.002-.011.006-.032a69.699 69.699 0 0 1 .008-.046l.002-.014.006-.032a4.434 4.434 0 0 0 .008-.047l.002-.01.007-.042v-.003l.016-.091.002-.008.006-.037.002-.011.006-.033.002-.013.006-.034.002-.011.007-.034.001-.011.008-.04v-.004l.025-.138v-.006l.008-.038.002-.01.006-.034c.001-.007 0-.007.002-.013l.006-.033a2.817 2.817 0 0 0 .009-.047l.001-.01.025-.136.008-.045.002-.007.007-.038.001-.01.007-.033c0-.007 0-.006.002-.013l.006-.035.002-.009.008-.043.026-.14v-.001l.008-.044.001-.005.008-.039.001-.008.007-.036.002-.011.007-.037.001-.007.008-.04v-.005l.027-.138v-.004l.008-.04.002-.008.007-.039.001-.006.008-.04v-.005l.01-.043v-.002l.035-.184v-.005a35.894 35.894 0 0 1 .01-.047l.007-.038.002-.007.007-.038.002-.008.008-.043.027-.138.001-.006.008-.04.001-.005.008-.041.001-.005.009-.042v-.003l.009-.042v-.005l.037-.182.001-.005.008-.04.001-.006.008-.04.002-.006.008-.04v-.005l.009-.04.001-.006.037-.182v-.004l.01-.042v-.004l.009-.042v-.004l.01-.043v-.002l.038-.184.01-.044v-.005l.009-.04v-.006l.009-.04.001-.006.01-.043.048-.23v-.005l.01-.04v-.005l.01-.042v-.003l.049-.228v-.003l.009-.04.002-.009.008-.038.001-.006.009-.04.001-.005.04-.182v-.001l.01-.044v-.004l.009-.04.002-.007.008-.04.001-.004.01-.043v-.002l.04-.183.001-.002.01-.042v-.005l.01-.04v-.007l.01-.04V83.7l.051-.226.002-.006.009-.04v-.005l.01-.039.001-.007.01-.04v-.004l.042-.182v-.001l.01-.043v-.004l.01-.041.001-.005a40.9 40.9 0 0 1 .01-.042v-.003l.043-.181v-.004l.01-.04.001-.006.01-.039.001-.008.009-.038.001-.006.01-.04v-.005l.043-.18v-.003c.005-.015.007-.026.01-.042l.002-.005.01-.04v-.006l.01-.04.001-.004.01-.042.001-.003.043-.18.001-.005.01-.04.001-.006.01-.04v-.004l.011-.043v-.001l.055-.226.001-.005.01-.041.001-.003.01-.043.001-.002.067-.27v-.005l.01-.041.002-.004.01-.041.001-.004.068-.271v-.001l.011-.045.011-.045v-.001l.07-.271v-.003c.03-.121.061-.24.093-.361v-.001l.07-.272.012-.044v-.002l.012-.043v-.002l.096-.362c5.87-22.08 18.614-41.359 35.8-55.406a6.97 6.97 0 0 1 4.427-1.58 7 7 0 0 1 4.434 12.42C26.484 52.775 14 79.082 14 107.158c0 51.368 41.79 93.158 93.158 93.158s93.158-41.79 93.158-93.158c0-51.367-41.79-93.158-93.158-93.158a7 7 0 1 1 0-14z" class="cls-3"/>
    </g>
</svg>
