<svg xmlns="http://www.w3.org/2000/svg" width="17.25" height="17.25" viewBox="0 0 17.25 17.25">
    <defs>
        <style>
            .cls-1{fill:#fff}
        </style>
    </defs>
    <g id="Plus">
        <path id="Path_49" d="M16.314 7.422H9.828V.937A1.163 1.163 0 0 0 8.625 0a1.163 1.163 0 0 0-1.2.936v6.486H.936A1.163 1.163 0 0 0 0 8.626a1.163 1.163 0 0 0 .936 1.2h6.485v6.485a1.163 1.163 0 0 0 1.2.936 1.163 1.163 0 0 0 1.2-.936V9.829h6.485a1.163 1.163 0 0 0 .936-1.2 1.163 1.163 0 0 0-.928-1.207z" class="cls-1" data-name="Path 49" transform="translate(0 -.001)"/>
    </g>
</svg>
