<svg xmlns="http://www.w3.org/2000/svg" id="profile" width="11.144" height="10.613" viewBox="0 0 11.144 10.613">
    <defs>
        <style>
            .cls-1{fill:#2f4050}
        </style>
    </defs>
    <path id="Path_309" d="M132.97 19.372a2.978 2.978 0 1 0-2.983-2.983 2.983 2.983 0 0 0 2.983 2.983zm0-5.179a2.2 2.2 0 1 1-2.2 2.2 2.2 2.2 0 0 1 2.2-2.2z" class="cls-1" data-name="Path 309" transform="translate(-127.416 -13.415)"/>
    <path id="Path_310" d="M.393 345.062h10.358a.391.391 0 0 0 .393-.393 3.747 3.747 0 0 0-3.744-3.743H3.742A3.747 3.747 0 0 0 0 344.668a.391.391 0 0 0 .393.394zm3.349-3.349H7.4a2.953 2.953 0 0 1 2.928 2.562H.814a2.961 2.961 0 0 1 2.928-2.562z" class="cls-1" data-name="Path 310" transform="translate(0 -334.448)"/>
</svg>
